<?xml version="1.0" encoding="UTF-8"?>
<svg xmlns="http://www.w3.org/2000/svg" xmlns:xlink="http://www.w3.org/1999/xlink" width="250px" height="250px" viewBox="0 0 250 250" version="1.1">
  <g id="surface1">
    <path style=" stroke:none;fill-rule:nonzero;fill:rgb(27.843137%,27.45098%,35.294118%);fill-opacity:1;" d="M 99.433594 71.542969 C 99.433594 77.519531 94.589844 82.363281 88.613281 82.363281 C 82.636719 82.363281 77.792969 77.519531 77.792969 71.542969 C 77.792969 65.566406 82.636719 60.722656 88.613281 60.722656 C 94.589844 60.722656 99.433594 65.566406 99.433594 71.542969 Z M 99.433594 71.542969 "/>
    <path style=" stroke:none;fill-rule:nonzero;fill:rgb(27.843137%,27.45098%,35.294118%);fill-opacity:1;" d="M 84.132812 83.59375 L 92.050781 83.59375 C 97.1875 83.59375 101.347656 87.753906 101.347656 92.890625 L 101.347656 136.359375 C 101.347656 141.484375 97.1875 145.644531 92.050781 145.644531 L 84.132812 145.644531 C 79.003906 145.644531 74.84375 141.484375 74.84375 136.359375 L 74.84375 92.890625 C 74.84375 87.753906 79.003906 83.59375 84.132812 83.59375 Z M 84.132812 83.59375 "/>
    <path style=" stroke:none;fill-rule:nonzero;fill:rgb(27.843137%,27.45098%,35.294118%);fill-opacity:1;" d="M 82.988281 130.1875 L 126.699219 130.1875 C 131.074219 130.1875 134.617188 133.730469 134.617188 138.105469 C 134.617188 142.480469 131.074219 146.035156 126.699219 146.035156 L 82.988281 146.035156 C 78.613281 146.035156 75.058594 142.480469 75.058594 138.105469 C 75.058594 133.730469 78.613281 130.1875 82.988281 130.1875 Z M 82.988281 130.1875 "/>
    <path style=" stroke:none;fill-rule:nonzero;fill:rgb(27.843137%,27.45098%,35.294118%);fill-opacity:1;" d="M 128.613281 133.195312 C 131.933594 133.195312 134.617188 135.878906 134.617188 139.199219 L 134.617188 177.453125 C 134.617188 180.773438 131.933594 183.46875 128.613281 183.46875 C 125.292969 183.46875 122.597656 180.773438 122.597656 177.453125 L 122.597656 139.199219 C 122.597656 135.878906 125.292969 133.195312 128.613281 133.195312 Z M 128.613281 133.195312 "/>
    <path style=" stroke:none;fill-rule:nonzero;fill:rgb(27.843137%,27.45098%,35.294118%);fill-opacity:1;" d="M 111.582031 113.515625 L 182.070312 113.515625 C 184.414062 113.515625 186.308594 115.410156 186.308594 117.753906 L 186.308594 118.027344 C 186.308594 120.359375 184.414062 122.265625 182.070312 122.265625 L 111.582031 122.265625 C 109.238281 122.265625 107.34375 120.359375 107.34375 118.027344 L 107.34375 117.753906 C 107.34375 115.410156 109.238281 113.515625 111.582031 113.515625 Z M 111.582031 113.515625 "/>
    <path style=" stroke:none;fill-rule:nonzero;fill:rgb(27.843137%,27.45098%,35.294118%);fill-opacity:1;" d="M 116.191406 104.890625 L 127.648438 104.890625 C 130.136719 104.890625 132.167969 106.671875 132.167969 108.859375 C 132.167969 111.046875 130.136719 112.820312 127.648438 112.820312 L 116.191406 112.820312 C 113.703125 112.820312 111.671875 111.046875 111.671875 108.859375 C 111.671875 106.671875 113.703125 104.890625 116.191406 104.890625 Z M 116.191406 104.890625 "/>
    <path style=" stroke:none;fill-rule:nonzero;fill:rgb(27.843137%,27.45098%,35.294118%);fill-opacity:1;" d="M 99.785156 87.109375 L 116.726562 103.75 C 118.9375 105.917969 119.539062 108.886719 118.078125 110.382812 L 117.636719 110.828125 C 116.171875 112.3125 113.195312 111.765625 110.984375 109.589844 L 94.042969 92.949219 C 91.835938 90.78125 91.230469 87.8125 92.695312 86.320312 L 93.132812 85.867188 C 94.601562 84.382812 97.578125 84.929688 99.785156 87.109375 Z M 99.785156 87.109375 "/>
    <path style=" stroke:none;fill-rule:nonzero;fill:rgb(58.039216%,57.647059%,71.372549%);fill-opacity:1;" d="M 135.722656 105.175781 L 145.828125 105.175781 C 147.34375 105.175781 148.5625 106.828125 148.5625 108.859375 C 148.5625 110.898438 147.34375 112.546875 145.828125 112.546875 L 135.722656 112.546875 C 134.21875 112.546875 132.988281 110.898438 132.988281 108.859375 C 132.988281 106.828125 134.21875 105.175781 135.722656 105.175781 Z M 135.722656 105.175781 "/>
    <path style=" stroke:none;fill-rule:nonzero;fill:rgb(58.039216%,57.647059%,71.372549%);fill-opacity:1;" d="M 158.835938 107.617188 L 182.0625 107.617188 C 182.519531 107.617188 182.882812 108.78125 182.882812 110.214844 C 182.882812 111.648438 182.519531 112.8125 182.0625 112.8125 L 158.835938 112.8125 C 158.390625 112.8125 158.015625 111.648438 158.015625 110.214844 C 158.015625 108.78125 158.390625 107.617188 158.835938 107.617188 Z M 158.835938 107.617188 "/>
    <path style=" stroke:none;fill-rule:nonzero;fill:rgb(58.039216%,57.647059%,71.372549%);fill-opacity:1;" d="M 166.804688 100.515625 L 175 100.515625 C 175.460938 100.515625 175.820312 102.625 175.820312 105.226562 C 175.820312 107.832031 175.460938 109.941406 175 109.941406 L 166.804688 109.941406 C 166.359375 109.941406 165.984375 107.832031 165.984375 105.226562 C 165.984375 102.625 166.359375 100.515625 166.804688 100.515625 Z M 166.804688 100.515625 "/>
    <path style=" stroke:none;fill-rule:nonzero;fill:rgb(58.039216%,57.647059%,71.372549%);fill-opacity:1;" d="M 151.257812 70.617188 L 155.351562 70.617188 C 155.8125 70.617188 156.171875 72.9375 156.171875 75.800781 L 156.171875 103.125 C 156.171875 105.996094 155.8125 108.320312 155.351562 108.320312 L 151.257812 108.320312 C 150.800781 108.320312 150.4375 105.996094 150.4375 103.125 L 150.4375 75.800781 C 150.4375 72.9375 150.800781 70.617188 151.257812 70.617188 Z M 151.257812 70.617188 "/>
    <path style="fill-rule:evenodd;fill:rgb(58.039216%,57.647059%,71.372549%);fill-opacity:1;stroke-width:1;stroke-linecap:butt;stroke-linejoin:miter;stroke:rgb(58.039216%,57.647059%,71.372549%);stroke-opacity:1;stroke-miterlimit:4;" d="M 187.823983 70.810421 L 247.111618 86.971898 L 247.111618 118.803798 L 188.351145 127.375591 Z M 187.823983 70.810421 " transform="matrix(0.540928,0,0,0.540928,53.20553,36.177165)"/>
    <path style=" stroke:none;fill-rule:nonzero;fill:rgb(27.843137%,27.45098%,35.294118%);fill-opacity:1;" d="M 77.234375 147.539062 L 111.660156 147.539062 C 112.109375 147.539062 112.480469 148.886719 112.480469 150.546875 C 112.480469 152.207031 112.109375 153.546875 111.660156 153.546875 L 77.234375 153.546875 C 76.789062 153.546875 76.414062 152.207031 76.414062 150.546875 C 76.414062 148.886719 76.789062 147.539062 77.234375 147.539062 Z M 77.234375 147.539062 "/>
    <path style="fill:none;stroke-width:15;stroke-linecap:round;stroke-linejoin:miter;stroke:rgb(27.843137%,27.45098%,35.294118%);stroke-opacity:1;stroke-miterlimit:4;" d="M 648.488855 331.038083 C 619.458855 331.659123 581.351565 367.9394 641.094148 444.543936 " transform="matrix(0.540928,0,0,0.540928,-170.191705,-61.130103)"/>
    <path style="fill:none;stroke-width:32.296001;stroke-linecap:butt;stroke-linejoin:round;stroke:rgb(27.843137%,27.45098%,35.294118%);stroke-opacity:1;stroke-miterlimit:4;" d="M 494.624602 -301.745961 L 763.757739 -301.745961 C 777.350734 -301.735748 788.370149 -290.716333 788.365043 -277.128444 L 788.365043 -8.00552 C 788.380362 5.592582 777.366053 16.606891 763.757739 16.611997 L 494.624602 16.611997 C 481.046926 16.606891 470.022404 5.592582 470.017298 -8.00552 L 470.017298 -277.128444 C 470.022404 -290.726545 481.041819 -301.745961 494.624602 -301.745961 Z M 494.624602 -301.745961 " transform="matrix(0.382493,0.382493,-0.382493,0.382493,-170.191705,-61.130103)"/>
    <path style="fill:none;stroke-width:15;stroke-linecap:butt;stroke-linejoin:miter;stroke:rgb(27.843137%,27.45098%,35.294118%);stroke-opacity:1;stroke-miterlimit:4;" d="M 485.725881 392.297159 L 444.311192 463.009038 " transform="matrix(0.540928,0,0,0.540928,-170.191705,-61.130103)"/>
    <path style=" stroke:none;fill-rule:nonzero;fill:rgb(100%,76.078431%,0%);fill-opacity:1;" d="M 100.019531 209.160156 L 77.101562 186.289062 L 86.476562 170.164062 L 95.839844 154.042969 L 104.140625 154.015625 L 112.453125 153.984375 L 112.453125 147 L 94.484375 147.207031 L 76.523438 147.421875 L 76.523438 153.601562 L 80.96875 153.828125 C 83.40625 153.953125 85.410156 154.171875 85.410156 154.296875 C 85.410156 154.726562 71.515625 178.242188 70.890625 178.859375 C 70.554688 179.1875 58.554688 167.726562 44.226562 153.367188 C 21.757812 130.867188 18.171875 126.960938 18.171875 124.992188 C 18.171875 123 24.84375 116.035156 70.539062 70.34375 C 111.84375 29.03125 123.300781 17.976562 124.824219 17.976562 C 126.347656 17.976562 137.882812 29.109375 179.492188 70.722656 C 213.984375 105.226562 232.226562 124.003906 232.226562 125.007812 C 232.226562 125.996094 223.09375 135.683594 206.582031 152.195312 L 180.9375 177.851562 L 177.742188 173.457031 C 169.03125 161.445312 164.875 151.757812 164.414062 142.390625 C 164.109375 136.320312 164.25 135.507812 166.320312 131.59375 C 169.09375 126.308594 173.640625 123.25 179.726562 122.570312 C 182.039062 122.304688 184.539062 121.570312 185.28125 120.917969 C 187.226562 119.226562 186.953125 116.335938 184.640625 114.1875 C 183.535156 113.171875 182.859375 111.972656 183.132812 111.515625 C 183.417969 111.0625 183.429688 110.007812 183.15625 109.160156 C 182.765625 107.921875 181.984375 107.617188 179.199219 107.617188 C 175.742188 107.617188 175.722656 107.609375 175.96875 105.109375 C 176.203125 102.597656 176.210938 102.597656 181.828125 101.914062 L 187.453125 101.21875 L 187.023438 82.625 L 173.886719 79.023438 C 166.660156 77.050781 159.8125 75.195312 158.679688 74.914062 C 157.324219 74.570312 156.523438 73.789062 156.359375 72.65625 C 156.164062 71.257812 155.546875 70.867188 153.210938 70.671875 L 150.3125 70.4375 L 150.3125 108.398438 L 153.09375 108.398438 C 155.164062 108.398438 155.96875 108.027344 156.25 106.945312 C 156.503906 105.976562 157.585938 105.320312 159.460938 105.019531 C 164.5 104.179688 165.773438 104.394531 165.773438 106.074219 C 165.773438 107.414062 165.253906 107.617188 161.90625 107.617188 L 158.046875 107.617188 L 158.046875 113.027344 L 152.609375 113.027344 C 147.46875 113.027344 147.21875 112.949219 147.96875 111.53125 C 149.121094 109.394531 148.953125 107.148438 147.558594 105.742188 C 145.839844 104.023438 135.90625 104.042969 134.003906 105.773438 C 132.753906 106.90625 132.492188 106.90625 130.867188 105.773438 C 129.679688 104.921875 127.414062 104.53125 123.808594 104.53125 L 118.515625 104.53125 L 108.144531 94.679688 C 97.664062 84.726562 96.921875 84.179688 92.742188 83.273438 L 90.429688 82.765625 L 92.742188 81.765625 C 97.9375 79.53125 100.671875 73.867188 99.171875 68.429688 C 96.933594 60.320312 86.710938 57.832031 80.78125 63.945312 C 78.664062 66.132812 78.132812 67.351562 77.871094 70.695312 C 77.597656 74.054688 77.871094 75.265625 79.367188 77.480469 C 80.371094 78.976562 82.351562 80.773438 83.78125 81.484375 L 86.367188 82.792969 L 83.367188 83.3125 C 79.453125 84.003906 77.207031 85.476562 75.734375 88.328125 C 74.695312 90.332031 74.5625 94.277344 74.746094 116.203125 L 74.96875 141.75 L 77.5 144.003906 L 80.019531 146.257812 L 122.5 146.257812 L 122.5 162.921875 C 122.5 172.3125 122.832031 180.203125 123.25 181.007812 C 124.171875 182.703125 128.203125 184.238281 130.058594 183.59375 C 130.78125 183.328125 132.167969 182.414062 133.125 181.554688 C 134.851562 180 134.863281 179.824219 134.863281 158.132812 C 134.863281 142.84375 134.589844 135.671875 133.9375 134.257812 C 132.246094 130.539062 129.992188 130.03125 115.195312 130.03125 L 101.632812 130.03125 L 101.632812 101.164062 L 107.625 106.90625 L 113.613281 112.648438 L 111.328125 113.15625 C 107.363281 114.054688 105.644531 118.476562 108.261719 121.09375 C 109.316406 122.148438 112.851562 122.304688 135.3125 122.304688 L 161.152344 122.304688 L 158.859375 126.375 C 155.390625 132.5 154.367188 139.851562 155.878906 147.546875 C 157.9375 158.027344 163.808594 170.1875 171.269531 179.445312 L 174.875 183.914062 L 150.8125 207.976562 C 132.304688 226.476562 126.296875 232.03125 124.84375 232.03125 C 123.390625 232.03125 117.609375 226.710938 100.019531 209.160156 Z M 100.019531 209.160156 "/>
    <path style=" stroke:none;fill-rule:nonzero;fill:rgb(100%,76.078431%,0%);fill-opacity:1;" d="M 147.023438 113.46875 C 115.625 113.378906 110.90625 113.328125 112.117188 113.085938 C 113.5625 112.792969 113.703125 112.695312 113.273438 112.265625 C 112.921875 111.914062 113.105469 111.953125 114.042969 112.429688 C 114.8125 112.820312 115.265625 112.84375 121.835938 112.84375 C 128.71875 112.84375 128.828125 112.832031 129.851562 112.351562 C 131.054688 111.789062 131.476562 111.367188 131.921875 110.292969 C 132.382812 109.199219 132.324219 108.09375 131.738281 107.070312 C 131.453125 106.59375 131.308594 106.191406 131.414062 106.191406 C 131.515625 106.191406 131.660156 106.28125 131.726562 106.398438 C 131.796875 106.515625 132.1875 106.601562 132.597656 106.601562 C 133.261719 106.601562 133.320312 106.648438 133.203125 107.070312 C 132.636719 109.101562 132.9375 110.671875 134.109375 111.855469 L 134.902344 112.636719 L 140.722656 112.636719 C 146.296875 112.636719 146.570312 112.617188 147.089844 112.207031 L 147.648438 111.777344 L 147.648438 112.21875 C 147.648438 112.492188 147.84375 112.726562 148.171875 112.851562 C 148.46875 112.960938 150.8125 113.054688 153.378906 113.054688 L 158.046875 113.054688 L 158.054688 112.480469 C 158.078125 111.921875 158.078125 111.914062 158.300781 112.382812 L 158.523438 112.84375 L 170.449219 112.84375 C 184.121094 112.84375 182.65625 113.105469 183 110.625 L 183.203125 109.210938 L 183.125 110.683594 C 183.054688 111.875 183.117188 112.285156 183.4375 112.820312 C 183.914062 113.59375 183.925781 113.691406 183.585938 113.625 C 183.4375 113.601562 166.984375 113.523438 147.023438 113.46875 Z M 147.023438 113.46875 "/>
    <path style=" stroke:none;fill-rule:nonzero;fill:rgb(100%,76.078431%,0%);fill-opacity:1;" d="M 143.742188 108.320312 L 142.234375 108.25 L 142.234375 105.710938 L 144.316406 105.820312 C 146.632812 105.929688 147.039062 106.132812 147.441406 107.351562 C 147.832031 108.546875 147.910156 108.523438 143.742188 108.320312 Z M 143.742188 108.320312 "/>
    <path style=" stroke:none;fill-rule:nonzero;fill:rgb(100%,76.078431%,0%);fill-opacity:1;" d="M 84.6875 83.171875 C 85.476562 83.015625 86.164062 82.851562 86.210938 82.804688 C 86.257812 82.753906 86.035156 82.558594 85.710938 82.382812 C 85.125 82.050781 85.136719 82.050781 86.164062 82.207031 C 87.46875 82.414062 89.863281 82.414062 90.945312 82.21875 L 91.777344 82.070312 L 91.054688 82.402344 C 90.253906 82.765625 90.28125 82.792969 91.984375 83.210938 C 92.898438 83.4375 92.441406 83.46875 88.144531 83.46875 C 83.4375 83.46875 83.300781 83.457031 84.6875 83.171875 Z M 84.6875 83.171875 "/>
    <path style=" stroke:none;fill-rule:nonzero;fill:rgb(100%,76.078431%,0%);fill-opacity:1;" d="M 175.867188 104.589844 C 175.839844 104.25 175.789062 103.601562 175.761719 103.171875 L 175.710938 102.382812 L 181.347656 101.5625 C 184.445312 101.113281 187.03125 100.722656 187.078125 100.703125 C 187.15625 100.671875 187.1875 99.757812 187.195312 96.515625 L 187.207031 92.351562 L 187.304688 96.0625 C 187.351562 98.105469 187.402344 100.097656 187.414062 100.488281 L 187.421875 101.203125 L 183.601562 101.660156 C 178.3125 102.304688 177.34375 102.480469 176.71875 102.910156 C 176.257812 103.222656 176.046875 103.808594 175.945312 104.953125 C 175.9375 105.109375 175.898438 104.953125 175.867188 104.589844 Z M 175.867188 104.589844 "/>
    <path style=" stroke:none;fill-rule:nonzero;fill:rgb(100%,76.078431%,0%);fill-opacity:1;" d="M 172.257812 78.925781 C 164.238281 76.738281 157.34375 74.851562 156.921875 74.746094 L 156.171875 74.53125 L 156.113281 73.613281 C 156.085938 73.105469 156.015625 72.421875 155.957031 72.101562 C 155.898438 71.777344 155.859375 71.492188 155.878906 71.484375 C 155.9375 71.414062 156.21875 72.109375 156.296875 72.53125 C 156.359375 72.792969 156.476562 73.171875 156.5625 73.378906 C 156.738281 73.796875 157.304688 74.375 157.78125 74.617188 C 157.960938 74.707031 159.375 75.117188 160.917969 75.539062 C 162.988281 76.085938 181.296875 81.085938 186.503906 82.507812 C 186.828125 82.597656 186.992188 82.6875 187.011719 82.78125 C 187.023438 82.859375 186.992188 82.921875 186.933594 82.910156 C 186.875 82.910156 180.273438 81.113281 172.257812 78.925781 Z M 172.257812 78.925781 "/>
    <path style=" stroke:none;fill-rule:nonzero;fill:rgb(100%,76.078431%,0%);fill-opacity:1;" d="M 206.015625 97.351562 C 202.585938 93.875 192.675781 83.90625 183.992188 75.203125 C 169.132812 60.3125 168.222656 59.382812 168.476562 59.382812 C 168.71875 59.382812 170.148438 60.789062 190.515625 81.164062 L 212.304688 102.949219 L 212.273438 103.320312 L 212.257812 103.679688 Z M 206.015625 97.351562 "/>
    <path style=" stroke:none;fill-rule:nonzero;fill:rgb(100%,76.078431%,0%);fill-opacity:1;" d="M 155.859375 107.429688 C 155.878906 107.304688 155.945312 106.882812 155.996094 106.492188 C 156.046875 106.101562 156.101562 105.65625 156.132812 105.507812 L 156.191406 105.226562 L 158.757812 104.851562 C 160.164062 104.648438 162.363281 104.328125 163.652344 104.140625 L 165.976562 103.796875 L 165.957031 104.835938 C 165.9375 105.390625 165.957031 106.242188 165.996094 106.710938 L 166.0625 107.558594 L 165.3125 107.546875 L 164.5625 107.546875 L 164.914062 107.429688 C 165.109375 107.375 165.382812 107.21875 165.507812 107.078125 C 165.710938 106.855469 165.742188 106.777344 165.773438 106.21875 C 165.8125 105.253906 165.546875 104.851562 164.71875 104.617188 C 163.613281 104.316406 158.953125 104.890625 157.675781 105.5 C 156.757812 105.929688 156.523438 106.171875 156.101562 107.226562 C 155.929688 107.636719 155.789062 107.753906 155.859375 107.429688 Z M 155.859375 107.429688 "/>
    <path style=" stroke:none;fill-rule:nonzero;fill:rgb(100%,76.078431%,0%);fill-opacity:1;" d="M 150.390625 106.328125 C 150.398438 104.511719 150.410156 104.367188 150.46875 105.164062 C 150.546875 106.347656 150.75 107.570312 150.9375 107.988281 L 151.085938 108.320312 L 152.128906 108.339844 C 153.125 108.367188 153.105469 108.367188 151.789062 108.378906 L 150.382812 108.398438 Z M 150.390625 106.328125 "/>
    <path style=" stroke:none;fill-rule:nonzero;fill:rgb(100%,76.078431%,0%);fill-opacity:1;" d="M 158.046875 108.328125 L 158.039062 107.636719 L 158.59375 107.636719 L 158.4375 107.890625 C 158.351562 108.039062 158.234375 108.351562 158.164062 108.585938 L 158.054688 109.015625 Z M 158.046875 108.328125 "/>
    <path style=" stroke:none;fill-rule:nonzero;fill:rgb(100%,76.078431%,0%);fill-opacity:1;" d="M 183.164062 110.671875 C 183.15625 110.28125 183.195312 109.914062 183.234375 109.84375 C 183.28125 109.765625 183.3125 109.921875 183.300781 110.359375 C 183.289062 111.289062 183.171875 111.5625 183.164062 110.671875 Z M 183.164062 110.671875 "/>
    <path style=" stroke:none;fill-rule:nonzero;fill:rgb(100%,76.078431%,0%);fill-opacity:1;" d="M 176.0625 107.578125 C 176.28125 107.558594 176.59375 107.558594 176.777344 107.578125 C 176.960938 107.597656 176.796875 107.609375 176.40625 107.609375 C 176.007812 107.609375 175.859375 107.597656 176.0625 107.578125 Z M 176.0625 107.578125 "/>
    <path style=" stroke:none;fill-rule:nonzero;fill:rgb(100%,76.078431%,0%);fill-opacity:1;" d="M 150.398438 72.546875 C 150.382812 70.644531 150.390625 70.429688 150.507812 70.46875 C 150.578125 70.5 150.828125 70.527344 151.085938 70.527344 C 151.328125 70.539062 151.425781 70.554688 151.308594 70.578125 C 151.171875 70.59375 151.054688 70.695312 150.984375 70.820312 C 150.75 71.269531 150.527344 72.675781 150.429688 74.265625 C 150.421875 74.492188 150.398438 73.710938 150.398438 72.546875 Z M 150.398438 72.546875 "/>
    <path style=" stroke:none;fill-rule:nonzero;fill:rgb(100%,76.078431%,0%);fill-opacity:1;" d="M 158.46875 49.726562 C 135.28125 26.710938 127.480469 19.277344 125.3125 18.15625 L 124.824219 17.898438 L 124.433594 18.085938 C 122.910156 18.828125 117.742188 23.574219 106.835938 34.25 C 103.925781 37.089844 103.117188 37.851562 103.09375 37.726562 C 103.078125 37.597656 105.332031 35.304688 112.6875 27.960938 C 121.632812 19.023438 122.34375 18.328125 122.871094 18.066406 C 124.238281 17.363281 125.664062 17.34375 127.078125 18.027344 C 127.570312 18.25 128.9375 19.609375 148.222656 38.886719 C 159.570312 50.226562 168.835938 59.511719 168.820312 59.53125 C 168.796875 59.550781 168.742188 59.53125 168.679688 59.484375 C 168.632812 59.421875 168.546875 59.382812 168.476562 59.382812 C 168.390625 59.382812 168.390625 59.40625 168.46875 59.5 C 169.015625 60.15625 167.109375 58.300781 158.46875 49.726562 Z M 158.46875 49.726562 "/>
    <path style=" stroke:none;fill-rule:nonzero;fill:rgb(100%,76.078431%,0%);fill-opacity:1;" d="M 75.28125 89.757812 C 75.28125 89.523438 75.617188 88.625 75.890625 88.105469 C 77.296875 85.515625 79.414062 84.140625 83.085938 83.40625 C 84.160156 83.195312 84.34375 83.171875 84.054688 83.3125 C 83.875 83.390625 83.945312 83.40625 84.5625 83.445312 L 85.273438 83.484375 L 84.132812 83.554688 C 83.496094 83.585938 82.703125 83.671875 82.363281 83.730469 C 79.328125 84.304688 76.679688 86.464844 75.527344 89.304688 C 75.390625 89.617188 75.28125 89.824219 75.28125 89.757812 Z M 75.28125 89.757812 "/>
    <path style=" stroke:none;fill-rule:nonzero;fill:rgb(100%,76.078431%,0%);fill-opacity:1;" d="M 31.882812 141.257812 C 21.453125 130.820312 18.390625 127.703125 18.171875 127.335938 C 17.226562 125.734375 17.304688 123.859375 18.378906 122.375 C 18.796875 121.796875 49.640625 90.9375 49.757812 90.984375 C 49.804688 90.996094 46.515625 94.375 42.453125 98.476562 C 24.765625 116.347656 19.539062 121.933594 18.40625 124.179688 C 18.234375 124.523438 18.171875 124.757812 18.171875 125.046875 C 18.195312 126.875 21.660156 130.734375 38.28125 147.414062 C 42.273438 151.425781 45.488281 154.695312 45.429688 154.695312 C 45.359375 154.695312 39.265625 148.652344 31.882812 141.257812 Z M 31.882812 141.257812 "/>
    <path style=" stroke:none;fill-rule:nonzero;fill:rgb(100%,76.078431%,0%);fill-opacity:1;" d="M 76.054688 142.675781 L 74.96875 141.710938 L 74.980469 139.96875 C 74.992188 138.484375 75 138.320312 75.058594 138.867188 C 75.253906 140.527344 75.957031 142.195312 76.933594 143.273438 C 77.460938 143.847656 77.117188 143.625 76.054688 142.675781 Z M 76.054688 142.675781 "/>
    <path style=" stroke:none;fill-rule:nonzero;fill:rgb(100%,76.078431%,0%);fill-opacity:1;" d="M 79.015625 145.320312 C 78.445312 144.8125 77.988281 144.382812 78 144.375 C 78.015625 144.355469 78.25 144.5 78.535156 144.695312 C 79.355469 145.273438 80.164062 145.625 81.367188 145.917969 C 81.828125 146.035156 83.585938 146.046875 99.707031 146.074219 C 111.257812 146.085938 117.53125 146.125 117.53125 146.171875 C 117.53125 146.21875 110.96875 146.25 98.796875 146.25 L 80.058594 146.25 Z M 79.015625 145.320312 "/>
    <path style=" stroke:none;fill-rule:nonzero;fill:rgb(100%,76.078431%,0%);fill-opacity:1;" d="M 58.007812 167.390625 C 50.996094 160.382812 45.292969 154.628906 45.320312 154.601562 C 45.359375 154.570312 47.480469 156.632812 50.046875 159.179688 C 59.773438 168.859375 68.898438 177.558594 70.449219 178.640625 C 70.632812 178.769531 70.839844 178.859375 70.898438 178.835938 C 71.085938 178.769531 74.960938 172.382812 79.367188 164.882812 C 84.03125 156.953125 85.488281 154.375 85.382812 154.265625 C 85.234375 154.121094 82.910156 153.898438 79.589844 153.71875 L 77.695312 153.613281 L 86.328125 153.59375 L 85.945312 154.25 C 85.734375 154.601562 82.257812 160.546875 78.210938 167.453125 C 74.160156 174.355469 70.828125 180.03125 70.800781 180.070312 C 70.761719 180.097656 65.007812 174.394531 58.007812 167.390625 Z M 58.007812 167.390625 "/>
    <path style=" stroke:none;fill-rule:nonzero;fill:rgb(100%,76.078431%,0%);fill-opacity:1;" d="M 83.183594 192.570312 L 76.757812 186.140625 L 77.695312 184.53125 C 78.210938 183.652344 82.5 176.335938 87.21875 168.28125 L 95.800781 153.632812 L 103.820312 153.59375 C 109.941406 153.5625 111.867188 153.535156 111.933594 153.457031 C 111.984375 153.40625 112.109375 153.125 112.207031 152.820312 L 112.390625 152.296875 L 112.390625 153.144531 L 112.402344 153.984375 L 95.839844 153.984375 L 86.53125 170 C 81.414062 178.808594 77.195312 186.074219 77.148438 186.152344 C 77.070312 186.269531 77.949219 187.179688 83.417969 192.648438 C 86.914062 196.140625 89.734375 199.003906 89.695312 199.003906 C 89.648438 199.003906 86.71875 196.101562 83.183594 192.570312 Z M 83.183594 192.570312 "/>
    <path style=" stroke:none;fill-rule:nonzero;fill:rgb(100%,76.078431%,0%);fill-opacity:1;" d="M 112.335938 148.613281 C 112.324219 148.507812 112.226562 148.210938 112.101562 147.976562 L 111.882812 147.546875 L 94.492188 147.53125 C 77.101562 147.507812 77.101562 147.507812 76.960938 147.675781 C 76.882812 147.765625 76.765625 148 76.6875 148.203125 L 76.5625 148.585938 L 76.542969 147.429688 L 77.714844 147.429688 C 78.351562 147.429688 81.679688 147.402344 85.117188 147.351562 C 101.492188 147.148438 112.34375 147.039062 112.375 147.070312 C 112.390625 147.078125 112.390625 147.480469 112.382812 147.960938 C 112.363281 148.429688 112.34375 148.71875 112.335938 148.613281 Z M 112.335938 148.613281 "/>
    <path style=" stroke:none;fill-rule:nonzero;fill:rgb(100%,76.078431%,0%);fill-opacity:1;" d="M 133.925781 134.757812 C 133.515625 133.75 132.273438 132.285156 131.257812 131.582031 C 130.957031 131.386719 130.734375 131.203125 130.761719 131.179688 C 130.859375 131.074219 132.039062 131.777344 132.519531 132.234375 C 133.117188 132.792969 133.808594 133.875 134.003906 134.539062 C 134.160156 135.085938 134.109375 135.214844 133.925781 134.757812 Z M 133.925781 134.757812 "/>
    <path style=" stroke:none;fill-rule:nonzero;fill:rgb(100%,76.078431%,0%);fill-opacity:1;" d="M 125.476562 182.773438 C 123.9375 181.992188 123.144531 181.140625 123.132812 180.28125 C 123.132812 180.125 123.195312 180.175781 123.417969 180.554688 C 124.023438 181.554688 124.765625 182.246094 125.839844 182.820312 C 126.164062 182.988281 126.359375 183.125 126.289062 183.125 C 126.21875 183.125 125.859375 182.96875 125.476562 182.773438 Z M 125.476562 182.773438 "/>
    <path style=" stroke:none;fill-rule:nonzero;fill:rgb(100%,76.078431%,0%);fill-opacity:1;" d="M 161.0625 197.753906 C 168.652344 190.164062 174.863281 183.9375 174.863281 183.90625 C 174.863281 183.875 174.539062 183.457031 174.148438 182.976562 C 173.757812 182.492188 173.4375 182.078125 173.4375 182.050781 C 173.4375 182.03125 173.613281 182.15625 173.820312 182.34375 C 174.328125 182.78125 174.765625 183.039062 175.410156 183.242188 L 175.957031 183.417969 L 161.882812 197.480469 C 148.546875 210.828125 147.804688 211.554688 147.539062 211.554688 C 147.273438 211.554688 147.871094 210.945312 161.0625 197.753906 Z M 161.0625 197.753906 "/>
    <path style=" stroke:none;fill-rule:nonzero;fill:rgb(100%,76.078431%,0%);fill-opacity:1;" d="M 180.585938 178.457031 C 180.421875 177.714844 180.175781 177.285156 178.867188 175.566406 C 171.367188 165.644531 166.679688 156.84375 164.679688 148.875 C 164.550781 148.351562 164.433594 147.898438 164.433594 147.871094 C 164.433594 147.851562 164.578125 147.832031 164.746094 147.832031 L 165.046875 147.832031 L 165.226562 148.601562 C 166.796875 155.578125 170.429688 163.085938 176.308594 171.484375 C 177.140625 172.664062 180.761719 177.6875 180.867188 177.792969 C 180.917969 177.84375 186.476562 172.34375 195.976562 162.84375 C 210.265625 148.554688 211.015625 147.820312 211.25 147.84375 C 211.492188 147.871094 210.828125 148.535156 196.074219 163.300781 L 180.644531 178.730469 Z M 180.585938 178.457031 "/>
    <path style=" stroke:none;fill-rule:nonzero;fill:rgb(100%,76.078431%,0%);fill-opacity:1;" d="M 171.804688 180.070312 C 168.390625 175.789062 165.957031 172.179688 163.574219 167.851562 C 162.304688 165.527344 159.890625 160.488281 159.960938 160.28125 C 159.96875 160.234375 160.136719 160.554688 160.320312 160.984375 C 160.917969 162.34375 162.734375 165.890625 163.789062 167.726562 C 166.296875 172.117188 169.539062 176.933594 172.871094 181.21875 C 173.15625 181.570312 173.359375 181.882812 173.339844 181.914062 C 173.320312 181.933594 172.625 181.101562 171.804688 180.070312 Z M 171.804688 180.070312 "/>
    <path style=" stroke:none;fill-rule:nonzero;fill:rgb(100%,76.078431%,0%);fill-opacity:1;" d="M 211.289062 147.96875 C 211.347656 147.8125 211.191406 147.78125 211.046875 147.921875 C 210.996094 147.976562 210.9375 148 210.917969 147.976562 C 210.898438 147.960938 212.78125 146.015625 215.117188 143.640625 C 224.757812 133.828125 229.992188 128.25 231.660156 125.996094 C 232.246094 125.214844 232.304688 125.070312 232.15625 124.785156 C 231.632812 123.78125 225.625 117.375 215.226562 106.726562 L 212.296875 103.730469 L 212.296875 102.9375 L 221.992188 112.648438 C 231.4375 122.101562 231.710938 122.382812 231.984375 122.960938 C 232.296875 123.585938 232.507812 124.421875 232.507812 125.007812 C 232.507812 125.585938 232.296875 126.425781 231.984375 127.0625 C 231.710938 127.636719 231.425781 127.921875 221.476562 137.882812 C 215.851562 143.507812 211.269531 148.046875 211.289062 147.96875 Z M 211.289062 147.96875 "/>
    <path style=" stroke:none;fill-rule:nonzero;fill:rgb(100%,76.078431%,0%);fill-opacity:1;" d="M 164.40625 147.734375 C 164.335938 147.546875 164.054688 145.976562 163.9375 145.1875 C 163.574219 142.78125 163.523438 139.882812 163.796875 137.804688 C 164.648438 131.414062 168.046875 126.515625 173.476562 123.859375 C 174.773438 123.222656 175.898438 122.8125 177.109375 122.519531 C 177.820312 122.34375 178.054688 122.324219 179.445312 122.335938 C 181.0625 122.34375 181.0625 122.363281 179.328125 122.597656 C 175.253906 123.15625 171.984375 124.695312 169.414062 127.296875 C 167.9375 128.78125 167.011719 130.136719 165.789062 132.585938 C 165.03125 134.109375 164.707031 134.960938 164.472656 136.023438 C 164.199219 137.226562 164.257812 141.84375 164.5625 144.589844 C 164.679688 145.617188 164.953125 147.402344 165.039062 147.695312 C 165.078125 147.804688 165.03125 147.832031 164.757812 147.832031 C 164.570312 147.832031 164.421875 147.78125 164.40625 147.734375 Z M 164.40625 147.734375 "/>
    <path style=" stroke:none;fill-rule:nonzero;fill:rgb(100%,76.078431%,0%);fill-opacity:1;" d="M 155.917969 147.609375 C 154.765625 141.6875 155.070312 136.101562 156.828125 131.007812 C 157.546875 128.886719 157.9375 128.078125 159.84375 124.679688 L 161.164062 122.324219 L 162.078125 122.324219 L 161.84375 122.617188 C 161.710938 122.78125 161.386719 123.183594 161.125 123.507812 C 158.730469 126.453125 156.914062 130.398438 156.0625 134.472656 C 155.664062 136.398438 155.507812 137.804688 155.460938 140.046875 C 155.398438 142.804688 155.554688 144.84375 156.035156 147.578125 C 156.308594 149.160156 156.230469 149.171875 155.917969 147.609375 Z M 155.917969 147.609375 "/>
    <path style=" stroke:none;fill-rule:nonzero;fill:rgb(100%,76.078431%,0%);fill-opacity:1;" d="M 123.945312 232.363281 C 123.710938 232.3125 123.25 232.128906 122.921875 231.972656 C 122.324219 231.679688 122.117188 231.484375 112.695312 222.070312 C 107.402344 216.789062 103.078125 212.414062 103.078125 212.34375 C 103.078125 212.285156 104.257812 213.398438 105.703125 214.835938 C 116.601562 225.664062 121.921875 230.585938 124.03125 231.777344 C 124.84375 232.226562 125.292969 232.109375 126.671875 231.085938 C 129.0625 229.316406 132.859375 225.761719 142.871094 215.898438 C 145.460938 213.359375 147.546875 211.335938 147.519531 211.414062 C 147.460938 211.582031 147.617188 211.609375 147.765625 211.464844 C 147.8125 211.40625 147.871094 211.386719 147.890625 211.40625 C 147.910156 211.425781 143.367188 215.996094 137.804688 221.554688 C 128.378906 230.96875 127.636719 231.6875 127.117188 231.953125 C 126.140625 232.453125 124.953125 232.609375 123.945312 232.363281 Z M 123.945312 232.363281 "/>
    <path style=" stroke:none;fill-rule:nonzero;fill:rgb(100%,76.078431%,0%);fill-opacity:1;" d="M 140.828125 105.109375 C 136.28125 105.078125 135.632812 105.058594 136.007812 104.960938 C 137.597656 104.589844 140.292969 104.414062 142.402344 104.539062 C 143.898438 104.640625 145.371094 104.84375 146.035156 105.058594 C 146.230469 105.117188 146.320312 105.164062 146.242188 105.15625 C 146.152344 105.15625 143.710938 105.125 140.828125 105.109375 Z M 140.828125 105.109375 "/>
    <path style=" stroke:none;fill-rule:nonzero;fill:rgb(100%,76.078431%,0%);fill-opacity:1;" d="M 117.460938 104.523438 C 117.324219 104.328125 113.445312 100.46875 108.835938 95.9375 C 104.238281 91.414062 100.488281 87.695312 100.507812 87.675781 C 100.585938 87.597656 103.808594 90.605469 112.664062 99.015625 L 118.507812 104.550781 L 121.75 104.5625 C 124.824219 104.5625 126.796875 104.628906 127.675781 104.785156 C 127.921875 104.824219 126.0625 104.851562 122.890625 104.863281 L 117.714844 104.875 Z M 117.460938 104.523438 "/>
    <path style=" stroke:none;fill-rule:nonzero;fill:rgb(100%,76.078431%,0%);fill-opacity:1;" d="M 101.347656 115.164062 L 101.347656 100.1875 L 102.742188 101.5625 C 103.515625 102.3125 105.742188 104.5 107.695312 106.425781 C 109.65625 108.351562 111.425781 110.046875 111.632812 110.203125 C 111.835938 110.371094 112.167969 110.722656 112.363281 111.007812 C 112.558594 111.28125 112.882812 111.632812 113.085938 111.777344 C 113.429688 112.039062 113.4375 112.0625 113.222656 112.039062 C 113.046875 112.023438 111.855469 110.917969 107.363281 106.609375 C 104.257812 103.632812 101.6875 101.191406 101.648438 101.171875 C 101.609375 101.164062 101.582031 107.148438 101.582031 115.605469 L 101.582031 130.058594 L 111.113281 130.078125 L 120.65625 130.097656 L 110.996094 130.117188 L 101.347656 130.136719 Z M 101.347656 115.164062 "/>
  </g>
</svg>
